# xmcd
#
# Track frame offsets: 
#        150
#        13200
#        25027
#        37065
#        50212
#        60872
#        74677
#        85330
#        99532
#        110907
#        120337
#        130537
#        142002
#        154950
#        167780
#        177290
#        187467
#        199697
#        212035
#        224545
#        236665
#        249600
#        294927
#        305867
#
# Disc length: 4252 seconds
#
# Revision: 2
# Processed by: cddbd v1.5.2PL0 Copyright (c) Steve Scherf et al.
# Submitted via: ExactAudioCopyFreeDBPlugin 1.0
#
DISCID=78109a18
DTITLE=Dyke and the Blazers - So Sharp!
DYEAR=1991
DGENRE=Rhythm and Blues
TTITLE0=So Sharp
TTITLE1=Don't Bug Me
TTITLE2=Funky Broadway, Part 1
TTITLE3=Funky Broadway, Part 2
TTITLE4=Shotgun Slim
TTITLE5=City Dump
TTITLE6=My Sisters and My Brothers
TTITLE7=Funky Walk, Part 1
TTITLE8=Funky Walk, Part 2
TTITLE9=Uhh, Part 1
TTITLE10=Uhh, Part 2
TTITLE11=It's You Thing
TTITLE12=You Are My Sunshine
TTITLE13=Broadway Combination
TTITLE14=Stuff
TTITLE15=Funky Bull, Part 1
TTITLE16=Funky Bull, Part 2
TTITLE17=Let a Woman Be a Woman - Let a Man Be a Man
TTITLE18=We Got More Soul
TTITLE19=The Wobble
TTITLE20=Uhh (Edit)
TTITLE21=The Wrong House
TTITLE22=Runaway People
TTITLE23=I'm So All Alone
EXTD=
EXTT0=
EXTT1=
EXTT2=
EXTT3=
EXTT4=
EXTT5=
EXTT6=
EXTT7=
EXTT8=
EXTT9=
EXTT10=
EXTT11=
EXTT12=
EXTT13=
EXTT14=
EXTT15=
EXTT16=
EXTT17=
EXTT18=
EXTT19=
EXTT20=
EXTT21=
EXTT22=
EXTT23=
PLAYORDER=
